<?xml version="1.0" encoding="UTF-8" standalone="no"?>
<!-- Created with Inkscape (http://www.inkscape.org/) -->

<svg
   xmlns:dc="http://purl.org/dc/elements/1.1/"
   xmlns:cc="http://creativecommons.org/ns#"
   xmlns:rdf="http://www.w3.org/1999/02/22-rdf-syntax-ns#"
   xmlns:svg="http://www.w3.org/2000/svg"
   xmlns="http://www.w3.org/2000/svg"
   xmlns:sodipodi="http://sodipodi.sourceforge.net/DTD/sodipodi-0.dtd"
   xmlns:inkscape="http://www.inkscape.org/namespaces/inkscape"
   width="1250.1117"
   height="138.88441"
   id="svg3815"
   version="1.1"
   inkscape:version="0.48.1 "
   sodipodi:docname="sugarcrmLogoWhiteBackground_RGB.svg">
  <defs
     id="defs3817" />
  <sodipodi:namedview
     inkscape:document-units="mm"
     pagecolor="#ffffff"
     bordercolor="#666666"
     borderopacity="1.0"
     inkscape:pageopacity="0.0"
     inkscape:pageshadow="2"
     inkscape:zoom="1"
     inkscape:cx="622.03094"
     inkscape:cy="69.442193"
     inkscape:current-layer="layer1"
     id="namedview3819"
     showgrid="false"
     units="mm"
     fit-margin-top="0"
     fit-margin-left="0"
     fit-margin-right="0"
     fit-margin-bottom="0"
     inkscape:window-width="1761"
     inkscape:window-height="836"
     inkscape:window-x="1400"
     inkscape:window-y="83"
     inkscape:window-maximized="0" />
  <metadata
     id="metadata3821">
    <rdf:RDF>
      <cc:Work
         rdf:about="">
        <dc:format>image/svg+xml</dc:format>
        <dc:type
           rdf:resource="http://purl.org/dc/dcmitype/StillImage" />
        <dc:title></dc:title>
      </cc:Work>
    </rdf:RDF>
  </metadata>
  <g
     inkscape:label="Layer 1"
     inkscape:groupmode="layer"
     id="layer1"
     transform="translate(135.05585,-294.65228)">
    <path
       style="fill:#343433;fill-opacity:1;stroke:none;display:inline"
       d="m -104.60203,422.62309 c -17.86818,-7.14398 -27.5305,-11.52707 -28.76112,-13.04681 -1.74617,-2.15644 -1.83811,-4.62838 -1.59208,-42.80538 0.22388,-34.73961 0.47499,-40.64997 1.76111,-41.45094 1.95335,-1.21649 57.487312,20.61702 60.761252,23.88865 l 2.26124,2.25966 -0.26124,40.78421 -0.26125,40.78421 -3.5,0.17231 c -2.40486,0.11839 -11.919399,-3.1939 -30.407912,-10.58591 z"
       id="path3865"
       inkscape:connector-curvature="0" />
    <path
       style="fill:#cdcccb;fill-opacity:1;stroke:none;display:inline"
       d="m -63.527448,432.87002 c -0.36667,-0.36666 -0.66667,-18.71654 -0.66667,-40.77749 0,-33.95054 0.22928,-40.43817 1.49288,-42.24221 1.8189,-2.59685 56.343738,-24.6179 59.755168,-24.13344 l 2.25195,0.31981 0.26111,40.62549 c 0.24139,37.55625 0.12806,40.78341 -1.5,42.7157 -1.75733,2.08571 -55.892448,24.15881 -59.250418,24.15881 -0.92255,0 -1.97736,-0.3 -2.34402,-0.66667 z"
       id="path3863"
       inkscape:connector-curvature="0" />
    <path
       style="fill:#343433;fill-opacity:1;stroke:none;display:inline"
       d="M 71.80588,416.58314 C 51.3414,414.40073 45.46592,409.05828 45.36025,392.53669 l -0.0544,-8.5 14.75,-0.27673 14.75,-0.27674 0,3.37175 c 0,2.15617 0.75814,4.05853 2.10293,5.27673 1.92677,1.74541 4.12567,1.92759 26.25,2.17484 26.68073,0.29817 28.89047,-0.089 29.47515,-5.16385 0.56061,-4.86589 -0.60221,-7.32662 -4.07205,-8.61721 -2.06135,-0.76671 -14.26346,-1.51778 -33.25603,-2.047 -33.55091,-0.93488 -38.51977,-1.76156 -44.09427,-7.33606 -7.58736,-7.58736 -8.51276,-31.21873 -1.6097,-41.10573 3.81748,-5.46765 9.38789,-8.29839 18.83043,-9.56916 10.65256,-1.43361 70.58839,-0.72222 75.49117,0.89601 9.81094,3.23826 14.56213,9.96529 15.5755,22.05281 l 0.59697,7.12034 -14.64503,0 c -14.08686,0 -14.64504,-0.078 -14.64504,-2.04545 0,-1.125 -1.10455,-3.15 -2.45455,-4.5 l -2.45454,-2.45455 -22.29546,0.0147 c -26.32842,0.0174 -27.29545,0.26546 -27.29545,7.00132 0,6.88407 0.94048,7.10622 32.34819,7.64098 14.6585,0.24958 29.65663,0.91399 33.32918,1.47647 13.04863,1.9985 18.96083,8.46488 20.96547,22.93067 1.15054,8.30243 -0.24568,19.71489 -2.98598,24.40695 -2.54872,4.364 -9.36178,9.17752 -14.86738,10.50401 -5.80402,1.39839 -62.45712,2.22652 -73.28948,1.07131 z"
       id="path3861"
       inkscape:connector-curvature="0" />
    <path
       style="fill:#343433;fill-opacity:1;stroke:none;display:inline"
       d="m 204.38746,416.50414 c -15.66142,-1.48891 -24.29104,-5.769 -28.8606,-14.31419 -2.16867,-4.05545 -2.2279,-5.06594 -2.515,-42.90327 l -0.29401,-38.74999 14.54401,0 14.54402,0 0.0564,30.25 c 0.0611,32.76956 0.43839,35.57493 5.26539,39.15634 2.65032,1.96641 4.07867,2.09366 23.5,2.09366 14.55016,0 21.57544,-0.37911 23.70589,-1.27925 5.87446,-2.48203 5.92641,-2.78476 6.47228,-37.72075 l 0.5,-32 14.5,0 14.5,0 0.2958,35 c 0.34884,41.27528 -0.16198,44.91881 -7.29809,52.05492 -5.02585,5.02586 -10.95249,7.19547 -23.16538,8.48033 -10.22079,1.07529 -44.1612,1.03402 -55.75075,-0.0678 z"
       id="path3859"
       inkscape:connector-curvature="0" />
    <path
       style="fill:#343433;fill-opacity:1;stroke:none;display:inline"
       d="m 331.05436,416.59584 c -10.70101,-1.0194 -19.74586,-5.25318 -24.22747,-11.34058 -5.56147,-7.55419 -6.21536,-11.91341 -5.84888,-38.99231 0.30861,-22.80299 0.4632,-24.51997 2.63148,-29.22623 3.07244,-6.66872 6.26205,-9.80913 13.04507,-12.84381 8.99677,-4.02511 19.81652,-4.92513 52.99972,-4.40872 32.10492,0.49963 35.92899,1.05714 42.70592,6.22616 5.57633,4.25327 7.74857,9.59205 8.25007,20.27637 l 0.43417,9.25 -15.11928,0 -15.11928,0 0,-2.82569 c 0,-1.74349 -0.98749,-3.75415 -2.57842,-5.25 -2.53669,-2.38507 -2.92113,-2.42937 -23.75,-2.73692 -32.7532,-0.48366 -33.17158,-0.18962 -33.17158,23.31258 0,14.00629 0.18336,15.60105 2.08993,18.17667 3.80528,5.14062 6.38104,5.75977 25.59862,6.15324 25.17493,0.51546 31.81145,-1.25466 31.81145,-8.4849 l 0,-3.34501 -17.03621,0 -17.03621,0 0.28621,-9.75 0.28621,-9.75 32.30841,-0.26393 32.30842,-0.26393 -0.30842,19.76393 c -0.27701,17.75188 -0.52124,20.17115 -2.39895,23.76393 -2.70166,5.16928 -9.03503,9.07928 -17.93529,11.0726 -8.0301,1.79844 -56.239,2.81891 -70.22569,1.48652 z"
       id="path3857"
       inkscape:connector-curvature="0" />
    <path
       style="fill:#cdcccb;fill-opacity:1;stroke:none;display:inline"
       d="m 713.67651,415.55831 c -10.52296,-1.86685 -18.33341,-7.4788 -22.28248,-16.01037 -1.95151,-4.21606 -2.08815,-6.24529 -2.08815,-31.01125 l 0,-26.5 2.85917,-5.82281 c 3.35351,-6.82955 8.38967,-10.91674 16.57703,-13.45339 4.84849,-1.50218 10.38502,-1.7238 43.0638,-1.7238 l 37.5,0 6,3 c 9.30457,4.65229 12.48409,10.82331 12.49442,24.25 l 0.006,7.25 -14.5,0 -14.5,0 0,-2.57692 c 0,-3.97931 -4.8071,-8.12165 -10.39795,-8.96005 -8.10418,-1.21529 -39.70357,-0.043 -43.01212,1.59565 -6.16247,3.0522 -7.05952,5.63412 -7.38736,21.26247 -0.32946,15.70572 0.54728,19.01724 6.11791,23.10777 2.59826,1.90791 4.44974,2.09707 23.5,2.40092 27.0323,0.43117 30.67963,-0.68401 31.89594,-9.75222 l 0.54692,-4.07762 14.23749,0 14.23749,0 0.55063,3.39314 c 0.8314,5.12333 -0.97088,17.06307 -3.24998,21.53048 -2.44177,4.78625 -6.83877,8.25514 -13.53897,10.6812 -4.41203,1.59754 -9.05697,1.83558 -39.5,2.02425 -18.975,0.1176 -36.58322,-0.15577 -39.12937,-0.60748 z"
       id="path3855"
       inkscape:connector-curvature="0" />
    <path
       id="path3851"
       style="fill:#343433;fill-opacity:1;stroke:none;display:inline"
       d="m 499.474,361.60833 c -4.49246,-8.21061 -8.54491,-15.07311 -9.00543,-15.25 -0.76382,-0.29341 -16.58595,27.68924 -16.63957,29.42836 -0.0127,0.4125 7.59004,0.75 16.895,0.75 l 16.91813,0 -8.16813,-14.92836 z m -78.66812,53.41908 c 0,-0.2801 11.5631,-21.6551 25.69578,-47.5 l 25.69578,-46.99072 18.28117,0 c 17.86708,0 18.31361,0.051 19.71383,2.25 1.60877,2.52657 49.61344,91.97733 49.61344,92.44851 0,0.16582 -7.3125,0.29671 -16.25,0.29087 l -16.25,-0.0106 -4.2685,-7.48938 -4.26849,-7.48938 -28.73151,0.0106 -28.7315,0.0106 -4.2685,7.48938 -4.26849,7.4894 -15.98151,0 c -8.78982,0 -15.9815,-0.22918 -15.9815,-0.50928 z"
       inkscape:connector-curvature="0" />
    <path
       id="path3847"
       style="fill:#343433;fill-opacity:1;stroke:none;display:inline"
       d="m 644.57196,365.25018 c 3.96026,-3.5876 3.44818,-16.45809 -0.74409,-18.70172 -1.12783,-0.6036 -11.80097,-1.01177 -26.45625,-1.01177 l -24.56574,0 0,11.04888 0,11.04888 24.897,-0.29888 c 22.24603,-0.26706 25.10699,-0.4891 26.86908,-2.08539 z m -81.76608,2.78651 0,-47.5 40.42764,0 c 23.0778,0 43.78467,0.45773 48.25,1.06657 9.72163,1.32553 17.23745,4.64449 20.65045,9.11916 3.95815,5.18939 6.01297,14.64985 5.42551,24.97917 -0.61805,10.8672 -3.22494,16.81016 -8.84351,20.16067 l -3.91624,2.33536 3.67468,2.41954 c 7.11058,4.68184 7.79297,6.4791 8.15895,21.48882 l 0.32748,13.43071 -15.07748,0 -15.07748,0 0,-9.97695 c 0,-14.0471 1.32518,-13.42859 -29.70408,-13.8639 l -24.29592,-0.34085 0,12.09085 0,12.09085 -15,0 -15,0 0,-47.5 z"
       inkscape:connector-curvature="0" />
    <path
       id="path3843"
       style="fill:#cdcccb;fill-opacity:1;stroke:none;display:inline"
       d="m 900.88915,365.67031 c 1.8713,-1.51531 2.3822,-3.0807 2.716,-8.32198 0.3676,-5.7742 0.1453,-6.76466 -2.106,-9.38362 l -2.5171,-2.92802 -25.5881,-0.2981 -25.58807,-0.29811 0,11.54811 0,11.5481 25.38917,0 c 23.2934,0 25.5795,-0.15407 27.6941,-1.86638 z m -82.08327,2.86638 0,-47 44.25,0.0148 c 48.03277,0.0161 53.35647,0.49857 60.98017,5.52706 2.0517,1.35321 4.6224,4.20914 5.7128,6.34651 4.223,8.27766 4.879,25.35792 1.32,34.36537 -1.6566,4.19282 -6.1297,8.42372 -9.9084,9.37214 -2.3417,0.58773 -2.1823,0.80175 2.6549,3.5644 7.4708,4.26677 8.9405,8.0455 8.9685,23.05974 l 0.022,11.75 -14.5,0 -14.5,0 0,-8.4349 c 0,-4.6392 -0.4179,-9.53397 -0.9286,-10.87728 -1.5556,-4.0915 -5.5271,-4.68782 -31.2206,-4.68782 l -23.85077,0 0,12 0,12 -14.5,0 -14.5,0 0,-47 z"
       inkscape:connector-curvature="0" />
    <path
       style="fill:#cdcccb;fill-opacity:1;stroke:none;display:inline"
       d="m 945.80585,368.53669 0,-47 21.25,0.01 21.25,0.01 16.50005,28.9802 c 13.5454,23.79089 16.7054,28.70435 17.6471,27.43971 0.6309,-0.84726 8.2809,-13.88142 17,-28.9648 l 15.8529,-27.42459 21.25,-0.0253 21.25,-0.0253 0,47 0,47 -13.9865,0 -13.9865,0 -0.2635,-33.1084 -0.2635,-33.1084 -19.0483,32.8584 -19.0484,32.8584 -9.5997,0.28498 -9.5996,0.28498 -19.10205,-33.25788 -19.102,-33.25789 0,33.2229 0,33.22291 -14,0 -14,0 0,-47 z"
       id="path3841"
       inkscape:connector-curvature="0" />
    <path
       id="path3833"
       style="fill:#cdcccb;fill-opacity:1;stroke:none;display:inline"
       d="m 1109.8059,407.53669 c 0,-0.55 -0.45,-1 -1,-1 -0.55,0 -1,0.45 -1,1 0,0.55 0.45,1 1,1 0.55,0 1,-0.45 1,-1 z m -2.884,1.68045 c -0.1021,-3.36065 0.1403,-3.78116 2.0173,-3.5 1.6171,0.24224 2.1948,1.11884 2.3879,3.62313 0.2408,3.12283 0.1562,3.21445 -1.5454,1.67453 -1.6696,-1.51094 -1.8343,-1.49669 -2.2719,0.19641 -0.2596,1.00402 -0.5241,0.10668 -0.5879,-1.99407 z m 5.0553,3.66456 c 2.2742,-2.05815 2.3449,-5.11713 0.1737,-7.51627 -2.0536,-2.26919 -4.1394,-2.3248 -6.5163,-0.17375 -2.2742,2.05815 -2.3449,5.11713 -0.1737,7.51627 2.0536,2.26919 4.1394,2.3248 6.5163,0.17375 z m -6.9488,1.09829 c -2.8019,-1.96251 -3.021,-7.41066 -0.3938,-9.78831 4.0081,-3.62725 10.4213,-0.64565 10.4213,4.84501 0,5.45243 -5.4587,8.14342 -10.0275,4.9433 z"
       inkscape:connector-curvature="0" />
    <path
       style="fill:#e61718;fill-opacity:1;stroke:none;display:inline"
       d="m -100.19412,332.07488 c -22.69238,-9.02553 -28.5,-11.70505 -28.5,-13.1493 0,-2.78185 53.982692,-24.2628 61.000002,-24.2733 7.15091,-0.0107 60.999998,21.41243 60.999998,24.26803 0,1.53576 -5.26321,3.97573 -28.499998,13.21232 -19.92392,7.91972 -29.70366,11.32102 -32.5,11.30318 -2.7117,-0.0173 -13.17912,-3.67636 -32.500002,-11.36093 z"
       id="path3033"
       inkscape:connector-curvature="0" />
  </g>
</svg>
